<mxfile host="app.diagrams.net" agent="Mozilla/5.0 (Windows NT 10.0; Win64; x64) AppleWebKit/537.36 (KHTML, like Gecko) Chrome/136.0.0.0 Safari/537.36" version="27.0.9">
  <diagram name="Página-1" id="AqaVjdYjPyvRt18ei0Ga">
    <mxGraphModel grid="1" page="1" gridSize="10" guides="1" tooltips="1" connect="1" arrows="1" fold="1" pageScale="1" pageWidth="827" pageHeight="1169" math="0" shadow="0">
      <root>
        <mxCell id="0" />
        <mxCell id="1" parent="0" />
        <mxCell id="hpgsTOIidXV3sBgLSWVT-1" value="validate_table_id(args.table_id)" style="whiteSpace=wrap;strokeWidth=2;" vertex="1" parent="1">
          <mxGeometry x="238" y="10" width="291" height="54" as="geometry" />
        </mxCell>
        <mxCell id="hpgsTOIidXV3sBgLSWVT-2" value="¿Válido?" style="rhombus;strokeWidth=2;whiteSpace=wrap;" vertex="1" parent="1">
          <mxGeometry x="328" y="114" width="110" height="110" as="geometry" />
        </mxCell>
        <mxCell id="hpgsTOIidXV3sBgLSWVT-3" value="Imprimir error y retornar 1" style="whiteSpace=wrap;strokeWidth=2;" vertex="1" parent="1">
          <mxGeometry x="120" y="368" width="252" height="54" as="geometry" />
        </mxCell>
        <mxCell id="hpgsTOIidXV3sBgLSWVT-4" value="¿args.delete_old &#xa;    no es None?" style="rhombus;strokeWidth=2;whiteSpace=wrap;" vertex="1" parent="1">
          <mxGeometry x="422" y="297" width="196" height="196" as="geometry" />
        </mxCell>
        <mxCell id="hpgsTOIidXV3sBgLSWVT-5" value="Imprimir debug de argumentos" style="whiteSpace=wrap;strokeWidth=2;" vertex="1" parent="1">
          <mxGeometry x="235" y="886" width="260" height="78" as="geometry" />
        </mxCell>
        <mxCell id="hpgsTOIidXV3sBgLSWVT-6" value="validate_table_id(args.delete_old)" style="whiteSpace=wrap;strokeWidth=2;" vertex="1" parent="1">
          <mxGeometry x="501" y="565" width="309" height="54" as="geometry" />
        </mxCell>
        <mxCell id="hpgsTOIidXV3sBgLSWVT-7" value="¿Válido?" style="rhombus;strokeWidth=2;whiteSpace=wrap;" vertex="1" parent="1">
          <mxGeometry x="600" y="691" width="110" height="110" as="geometry" />
        </mxCell>
        <mxCell id="hpgsTOIidXV3sBgLSWVT-8" value="Imprimir error tabla antigua&#xa;    y retornar 1" style="whiteSpace=wrap;strokeWidth=2;" vertex="1" parent="1">
          <mxGeometry x="545" y="874" width="260" height="102" as="geometry" />
        </mxCell>
        <mxCell id="hpgsTOIidXV3sBgLSWVT-9" value="" style="curved=1;startArrow=none;endArrow=block;exitX=0.5;exitY=1;entryX=0.5;entryY=0;rounded=0;" edge="1" parent="1" source="hpgsTOIidXV3sBgLSWVT-1" target="hpgsTOIidXV3sBgLSWVT-2">
          <mxGeometry relative="1" as="geometry">
            <Array as="points" />
          </mxGeometry>
        </mxCell>
        <mxCell id="hpgsTOIidXV3sBgLSWVT-10" value="No" style="curved=1;startArrow=none;endArrow=block;exitX=0;exitY=0.84;entryX=0.5;entryY=-0.01;rounded=0;" edge="1" parent="1" source="hpgsTOIidXV3sBgLSWVT-2" target="hpgsTOIidXV3sBgLSWVT-3">
          <mxGeometry relative="1" as="geometry">
            <Array as="points">
              <mxPoint x="246" y="261" />
            </Array>
          </mxGeometry>
        </mxCell>
        <mxCell id="hpgsTOIidXV3sBgLSWVT-11" value="Sí" style="curved=1;startArrow=none;endArrow=block;exitX=1;exitY=0.84;entryX=0.5;entryY=0;rounded=0;" edge="1" parent="1" source="hpgsTOIidXV3sBgLSWVT-2" target="hpgsTOIidXV3sBgLSWVT-4">
          <mxGeometry relative="1" as="geometry">
            <Array as="points">
              <mxPoint x="520" y="261" />
            </Array>
          </mxGeometry>
        </mxCell>
        <mxCell id="hpgsTOIidXV3sBgLSWVT-12" value="No" style="curved=1;startArrow=none;endArrow=block;exitX=0;exitY=0.89;entryX=0.48;entryY=0;rounded=0;" edge="1" parent="1" source="hpgsTOIidXV3sBgLSWVT-4" target="hpgsTOIidXV3sBgLSWVT-5">
          <mxGeometry relative="1" as="geometry">
            <Array as="points">
              <mxPoint x="351" y="529" />
              <mxPoint x="351" y="838" />
            </Array>
          </mxGeometry>
        </mxCell>
        <mxCell id="hpgsTOIidXV3sBgLSWVT-13" value="Sí" style="curved=1;startArrow=none;endArrow=block;exitX=1;exitY=0.99;entryX=0.5;entryY=0;rounded=0;" edge="1" parent="1" source="hpgsTOIidXV3sBgLSWVT-4" target="hpgsTOIidXV3sBgLSWVT-6">
          <mxGeometry relative="1" as="geometry">
            <Array as="points">
              <mxPoint x="655" y="529" />
            </Array>
          </mxGeometry>
        </mxCell>
        <mxCell id="hpgsTOIidXV3sBgLSWVT-14" value="" style="curved=1;startArrow=none;endArrow=block;exitX=0.5;exitY=1;entryX=0.5;entryY=0;rounded=0;" edge="1" parent="1" source="hpgsTOIidXV3sBgLSWVT-6" target="hpgsTOIidXV3sBgLSWVT-7">
          <mxGeometry relative="1" as="geometry">
            <Array as="points" />
          </mxGeometry>
        </mxCell>
        <mxCell id="hpgsTOIidXV3sBgLSWVT-15" value="No" style="curved=1;startArrow=none;endArrow=block;exitX=0.61;exitY=1.01;entryX=0.5;entryY=0;rounded=0;" edge="1" parent="1" source="hpgsTOIidXV3sBgLSWVT-7" target="hpgsTOIidXV3sBgLSWVT-8">
          <mxGeometry relative="1" as="geometry">
            <Array as="points">
              <mxPoint x="675" y="838" />
            </Array>
          </mxGeometry>
        </mxCell>
        <mxCell id="hpgsTOIidXV3sBgLSWVT-16" value="Sí" style="curved=1;startArrow=none;endArrow=block;exitX=0;exitY=0.8;entryX=0.73;entryY=0;rounded=0;" edge="1" parent="1" source="hpgsTOIidXV3sBgLSWVT-7" target="hpgsTOIidXV3sBgLSWVT-5">
          <mxGeometry relative="1" as="geometry">
            <Array as="points">
              <mxPoint x="500" y="838" />
            </Array>
          </mxGeometry>
        </mxCell>
        <mxCell id="hpgsTOIidXV3sBgLSWVT-17" value="Continuar con la ejecución" style="whiteSpace=wrap;strokeWidth=2;" vertex="1" parent="1">
          <mxGeometry x="262.5" y="1000" width="205" height="50" as="geometry" />
        </mxCell>
        <mxCell id="hpgsTOIidXV3sBgLSWVT-18" value="" style="curved=1;startArrow=none;endArrow=block;exitX=0.5;exitY=1;entryX=0.5;entryY=0;rounded=0;entryDx=0;entryDy=0;exitDx=0;exitDy=0;" edge="1" parent="1" source="hpgsTOIidXV3sBgLSWVT-5" target="hpgsTOIidXV3sBgLSWVT-17">
          <mxGeometry relative="1" as="geometry">
            <Array as="points" />
            <mxPoint x="766" y="780" as="sourcePoint" />
            <mxPoint x="570" y="899" as="targetPoint" />
          </mxGeometry>
        </mxCell>
      </root>
    </mxGraphModel>
  </diagram>
</mxfile>
